<mxfile host="app.diagrams.net" modified="2024-06-16T04:22:54.844Z" agent="Mozilla/5.0 (Windows NT 10.0; Win64; x64) AppleWebKit/537.36 (KHTML, like Gecko) Chrome/125.0.0.0 Safari/537.36" version="24.5.4" etag="R2RKbsVFM_pNqNI7001M" type="github">
  <diagram name="Page-1" id="K4CkH78uCk1akQUcemaf">
    <mxGraphModel>
      <root>
        <mxCell id="0" />
        <mxCell id="1" parent="0" />
      </root>
    </mxGraphModel>
  </diagram>
</mxfile>
